<svg width="20" height="20" viewBox="0 0 20 20" fill="none" xmlns="http://www.w3.org/2000/svg">
<path d="M9.98557 17.2294C10.1319 17.2294 10.2737 17.2807 10.3862 17.3744C10.4986 17.4681 10.5746 17.5983 10.601 17.7423L10.611 17.8549V19.3734C10.6113 19.5297 10.553 19.6804 10.4478 19.7959C10.3425 19.9114 10.1977 19.9833 10.0421 19.9974C9.88643 20.0116 9.73113 19.9669 9.60676 19.8722C9.4824 19.7776 9.39798 19.6398 9.37014 19.486L9.36013 19.3734V17.8549C9.36013 17.689 9.42603 17.5299 9.54332 17.4126C9.66061 17.2953 9.81969 17.2294 9.98557 17.2294ZM15.9872 15.0929L17.0605 16.1662C17.1744 16.2842 17.2374 16.4421 17.236 16.6061C17.2346 16.7701 17.1688 16.927 17.0528 17.0429C16.9369 17.1589 16.78 17.2247 16.616 17.2261C16.452 17.2275 16.2941 17.1645 16.1761 17.0506L15.1029 15.9773C15.0431 15.9196 14.9955 15.8506 14.9627 15.7743C14.9299 15.698 14.9127 15.6159 14.9119 15.5329C14.9112 15.4498 14.927 15.3675 14.9585 15.2906C14.9899 15.2138 15.0364 15.1439 15.0951 15.0852C15.1538 15.0265 15.2237 14.98 15.3005 14.9486C15.3774 14.9171 15.4597 14.9013 15.5428 14.902C15.6258 14.9028 15.7079 14.92 15.7842 14.9528C15.8605 14.9856 15.9295 15.0332 15.9872 15.0929ZM4.86952 15.0929C4.98677 15.2102 5.05264 15.3693 5.05264 15.5351C5.05264 15.701 4.98677 15.86 4.86952 15.9773L3.79503 17.0506C3.73734 17.1103 3.66832 17.1579 3.59202 17.1907C3.51571 17.2235 3.43364 17.2407 3.3506 17.2415C3.26755 17.2422 3.1852 17.2264 3.10833 17.1949C3.03147 17.1635 2.96164 17.117 2.90292 17.0583C2.84419 16.9996 2.79775 16.9298 2.7663 16.8529C2.73486 16.776 2.71903 16.6937 2.71975 16.6106C2.72048 16.5276 2.73773 16.4455 2.77051 16.3692C2.80329 16.2929 2.85093 16.2239 2.91067 16.1662L3.98516 15.0929C4.10245 14.9757 4.2615 14.9098 4.42734 14.9098C4.59318 14.9098 4.75224 14.9757 4.86952 15.0929ZM9.99807 4.39054C11.4848 4.39054 12.9107 4.98114 13.9619 6.03243C15.0132 7.08371 15.6038 8.50956 15.6038 9.9963C15.6038 11.483 15.0132 12.9089 13.9619 13.9602C12.9107 15.0114 11.4848 15.6021 9.99807 15.6021C8.51134 15.6021 7.08549 15.0114 6.03421 13.9602C4.98292 12.9089 4.39232 11.483 4.39232 9.9963C4.39232 8.50956 4.98292 7.08371 6.03421 6.03243C7.08549 4.98114 8.51134 4.39054 9.99807 4.39054ZM9.99807 5.64141C9.42618 5.64141 8.85989 5.75405 8.33153 5.9729C7.80317 6.19176 7.32309 6.51254 6.9187 6.91692C6.51431 7.32131 6.19353 7.80139 5.97468 8.32975C5.75583 8.85811 5.64318 9.4244 5.64318 9.9963C5.64318 10.5682 5.75583 11.1345 5.97468 11.6628C6.19353 12.1912 6.51431 12.6713 6.9187 13.0757C7.32309 13.4801 7.80317 13.8008 8.33153 14.0197C8.85989 14.2385 9.42618 14.3512 9.99807 14.3512C11.1531 14.3512 12.2607 13.8924 13.0774 13.0757C13.8941 12.259 14.353 11.1513 14.353 9.9963C14.353 8.84131 13.8941 7.73362 13.0774 6.91692C12.2607 6.10022 11.1531 5.64141 9.99807 5.64141ZM19.3533 9.394C19.5084 9.39535 19.6575 9.45431 19.7716 9.55943C19.8857 9.66456 19.9567 9.80834 19.9707 9.96285C19.9848 10.1174 19.9409 10.2716 19.8476 10.3955C19.7543 10.5195 19.6182 10.6043 19.4659 10.6336L19.3533 10.6436H17.8335C17.6772 10.6439 17.5265 10.5857 17.411 10.4804C17.2955 10.3751 17.2236 10.2303 17.2095 10.0747C17.1954 9.91905 17.24 9.76375 17.3347 9.63939C17.4293 9.51502 17.5671 9.43061 17.7209 9.40276L17.8335 9.39275H19.3521L19.3533 9.394ZM2.14514 9.36398C2.30143 9.3637 2.45216 9.42194 2.56766 9.52723C2.68315 9.63253 2.75504 9.77725 2.76916 9.93291C2.78328 10.0886 2.73862 10.2439 2.64396 10.3682C2.5493 10.4926 2.41151 10.577 2.25771 10.6048L2.14514 10.6148H0.626586C0.470295 10.6151 0.31956 10.5569 0.204064 10.4516C0.088568 10.3463 0.0166812 10.2016 0.00255956 10.0459C-0.0115621 9.89028 0.0331051 9.73498 0.127765 9.61061C0.222425 9.48625 0.360217 9.40183 0.514008 9.37399L0.626586 9.36398H2.14514ZM3.70872 2.87699L3.79628 2.94954L4.86952 4.02279C4.98033 4.1331 5.0458 4.28091 5.05303 4.4371C5.06026 4.59329 5.00872 4.74652 4.90858 4.8666C4.80844 4.98667 4.66695 5.06489 4.512 5.08582C4.35706 5.10676 4.19989 5.06889 4.07147 4.9797L3.98391 4.90715L2.91067 3.8339C2.79986 3.72359 2.73439 3.57578 2.72716 3.41959C2.71993 3.2634 2.77147 3.11017 2.87161 2.99009C2.97175 2.87001 3.11324 2.7918 3.26819 2.77087C3.42313 2.74993 3.5803 2.7878 3.70872 2.87699ZM17.0605 2.94954C17.1638 3.05295 17.2276 3.18927 17.2408 3.33482C17.2541 3.48038 17.2159 3.62598 17.133 3.74634L17.0605 3.8339L15.9872 4.90715C15.8769 5.01795 15.7291 5.08342 15.5729 5.09065C15.4167 5.09788 15.2635 5.04635 15.1434 4.94621C15.0233 4.84606 14.9451 4.70458 14.9242 4.54963C14.9032 4.39468 14.9411 4.23751 15.0303 4.1091L15.1029 4.02153L16.1761 2.94954C16.2934 2.83229 16.4524 2.76642 16.6183 2.76642C16.7841 2.76642 16.9432 2.83229 17.0605 2.94954ZM9.99057 3.4787e-08C10.137 -4.87664e-05 10.2787 0.0512498 10.3912 0.144962C10.5036 0.238674 10.5796 0.368863 10.606 0.512855L10.616 0.625433V2.14398C10.6163 2.30028 10.5581 2.45101 10.4528 2.56651C10.3475 2.682 10.2027 2.75389 10.0471 2.76801C9.89143 2.78213 9.73613 2.73747 9.61177 2.64281C9.4874 2.54815 9.40299 2.41035 9.37514 2.25656L9.36514 2.14398V0.625433C9.36514 0.459558 9.43103 0.300477 9.54832 0.183185C9.66561 0.0658938 9.82469 3.4787e-08 9.99057 3.4787e-08Z" fill="white"/>
</svg>
