<svg width="26" height="20" viewBox="0 0 26 20" fill="none" xmlns="http://www.w3.org/2000/svg">
<path d="M14.8101 6.14272C18.6054 6.14272 20.7579 8.56466 21.0705 11.4916H21.1659C23.6079 11.4916 25.588 13.3962 25.588 15.7458C25.588 18.0954 23.6079 20 21.1659 20H8.4542C6.01224 20 4.03219 18.0954 4.03219 15.7458C4.03219 13.3962 6.01224 11.4916 8.4542 11.4916H8.54966C8.8653 8.54465 11.0147 6.14272 14.8101 6.14272ZM14.8101 7.68242C12.2696 7.68242 10.057 9.63783 10.057 12.34C10.057 12.768 9.66595 13.1037 9.21789 13.1037H8.37106C6.8252 13.1022 5.57189 14.3031 5.57189 15.7812C5.57189 17.2593 6.8252 18.4603 8.37106 18.4603H21.2491C22.795 18.4603 24.0483 17.2593 24.0483 15.7812C24.0483 14.3031 22.795 13.1022 21.2491 13.1022H20.4023C19.9557 13.1037 19.5631 12.768 19.5631 12.34C19.5631 9.60396 17.3506 7.68242 14.8101 7.68242ZM3.72887 10.2999C3.78819 10.4704 3.78569 10.6564 3.7218 10.8253C3.65791 10.9941 3.5367 11.1352 3.37936 11.2237L3.25156 11.2792L2.01826 11.7041C1.83626 11.7678 1.63698 11.7609 1.45984 11.6847C1.28271 11.6085 1.1406 11.4686 1.06164 11.2927C0.982685 11.1168 0.972617 10.9176 1.03343 10.7347C1.09425 10.5517 1.22152 10.3982 1.39007 10.3045L1.51632 10.2491L2.75116 9.82414C2.94411 9.75792 3.15546 9.771 3.33877 9.86049C3.52209 9.94999 3.6624 10.1086 3.72887 10.3014V10.2999ZM11.6075 3.83317C12.1202 4.0826 12.5714 4.40748 12.9532 4.78778C12.3281 4.91558 11.743 5.11112 11.2041 5.36517C10.5087 4.94661 9.68976 4.78194 8.88663 4.89919C8.0835 5.01644 7.34581 5.40836 6.7991 6.00825C6.25239 6.60815 5.93043 7.37895 5.88803 8.18949C5.84563 9.00002 6.0854 9.80021 6.56653 10.4539C6.05843 10.6048 5.58113 10.8249 5.14231 11.1005C4.54663 10.1732 4.2707 9.07634 4.35663 7.97747C4.44257 6.8786 4.88565 5.83801 5.61827 5.0145C6.35088 4.19098 7.3328 3.62976 8.41419 3.41646C9.49558 3.20317 10.6171 3.34951 11.6075 3.83317ZM2.3647 4.09492L2.49249 4.14419L3.66574 4.71542C3.8387 4.7995 3.97393 4.94527 4.04481 5.12404C4.1157 5.30282 4.1171 5.50165 4.04875 5.68141C3.9804 5.86116 3.84724 6.00883 3.67549 6.09534C3.50373 6.18186 3.30582 6.20096 3.12069 6.14888L2.99135 6.09961L1.8181 5.52838C1.64514 5.4443 1.50992 5.29853 1.43903 5.11975C1.36815 4.94098 1.36675 4.74215 1.4351 4.56239C1.50345 4.38263 1.6366 4.23497 1.80836 4.14845C1.98011 4.06194 2.17803 4.04284 2.36316 4.09492H2.3647ZM13.255 0.438138C13.4171 0.517232 13.5463 0.650736 13.62 0.815354C13.6937 0.979972 13.7073 1.16525 13.6584 1.33886L13.6091 1.4682L13.0379 2.64145C12.9538 2.81441 12.808 2.94963 12.6293 3.02052C12.4505 3.0914 12.2517 3.0928 12.0719 3.02445C11.8921 2.9561 11.7445 2.82295 11.658 2.65119C11.5714 2.47944 11.5523 2.28152 11.6044 2.09639L11.6537 1.96552L12.2265 0.792268C12.316 0.609045 12.4746 0.468848 12.6675 0.402454C12.8603 0.336059 13.0716 0.348893 13.255 0.438138ZM7.41953 0.388867L7.47649 0.515122L7.90145 1.74996C7.96392 1.93173 7.95613 2.13029 7.87963 2.30661C7.80312 2.48293 7.66342 2.62426 7.488 2.7028C7.31257 2.78135 7.11412 2.79143 6.93163 2.73107C6.74915 2.67071 6.59585 2.54427 6.50187 2.37662L6.44644 2.25036L6.02148 1.01706C5.95999 0.835723 5.96829 0.637975 6.04475 0.462423C6.12122 0.286871 6.26036 0.146116 6.43502 0.0676339C6.60968 -0.0108477 6.80732 -0.0214222 6.98936 0.0379747C7.1714 0.0973715 7.32476 0.222476 7.41953 0.388867Z" fill="white"/>
</svg>
