<svg width="21" height="13" viewBox="0 0 21 13" fill="none" xmlns="http://www.w3.org/2000/svg">
<path d="M10.9733 0C14.4945 0 16.492 2.27264 16.782 5.018H16.8695C19.137 5.018 20.9733 6.80491 20.9733 9.009C20.9733 11.2131 19.1358 13 16.8708 13H5.07577C2.80952 13 0.973267 11.2131 0.973267 9.009C0.973267 6.87818 2.68952 5.13736 4.85077 5.02391L5.16452 5.018C5.45702 2.25491 7.45202 0 10.9733 0ZM10.9733 1.18182C8.33077 1.18182 6.66202 2.73709 6.40827 5.135C6.37757 5.42672 6.23328 5.69725 6.00344 5.89403C5.77359 6.09081 5.47459 6.19979 5.16452 6.19982H5.07702C3.50702 6.19982 2.22327 7.45018 2.22327 9.009C2.22327 10.569 3.50827 11.8182 5.07577 11.8182H16.8708C18.4383 11.8182 19.7233 10.5678 19.7233 9.009C19.7233 7.449 18.4383 6.19982 16.8708 6.19982H16.782C16.4721 6.19982 16.1733 6.091 15.9435 5.89446C15.7137 5.69793 15.5693 5.42769 15.5383 5.13618C15.2858 2.74773 13.6095 1.18182 10.9733 1.18182Z" fill="white"/>
</svg>
