<svg width="21" height="20" viewBox="0 0 21 20" fill="none" xmlns="http://www.w3.org/2000/svg">
<path fill-rule="evenodd" clip-rule="evenodd" d="M10.0073 0C13.5314 0 15.53 2.25022 15.8202 4.96651H15.9088C18.1762 4.96651 20.0147 6.73494 20.0147 8.91656C20.0147 11.0982 18.1762 12.8666 15.9088 12.8666L14.9038 12.8652V12.8666H14.8609L13.4928 15.3556C13.3996 15.5182 13.2462 15.6377 13.0658 15.6884C12.8853 15.739 12.6922 15.7168 12.528 15.6264C12.3638 15.5361 12.2416 15.3848 12.1878 15.2053C12.134 15.0257 12.1529 14.8322 12.2404 14.6665L13.2311 12.8652H10.6321V12.8666H10.5735L9.2039 15.3556C9.11071 15.5182 8.95738 15.6377 8.77692 15.6884C8.59646 15.739 8.40332 15.7168 8.23911 15.6264C8.07489 15.5361 7.95273 15.3848 7.89895 15.2053C7.84516 15.0257 7.86405 14.8322 7.95155 14.6665L8.94228 12.8652H6.33608V12.8666H6.28462L4.91504 15.3556C4.82185 15.5182 4.66851 15.6377 4.48806 15.6884C4.3076 15.739 4.11446 15.7168 3.95024 15.6264C3.78603 15.5361 3.66387 15.3848 3.61008 15.2053C3.5563 15.0257 3.57519 14.8322 3.66269 14.6665L4.65342 12.8652L4.10587 12.8666C1.83849 12.8666 0 11.0982 0 8.91656C0 6.81499 1.70411 5.09803 3.85569 4.97366L4.19451 4.96651C4.48758 2.23164 6.48333 0 10.0073 0ZM5.87717 11.437H15.9846C17.4228 11.437 18.5851 10.3233 18.5851 8.94942C18.5851 7.57698 17.4214 6.46331 15.986 6.46331H15.1997C14.7851 6.46331 14.4206 6.15166 14.4206 5.75423C14.4206 3.2138 12.3662 1.42962 10.0073 1.42962C7.64847 1.42962 5.59411 3.24524 5.59411 5.75423C5.59411 6.15166 5.23098 6.46331 4.81497 6.46331H4.02867C2.59333 6.46331 1.42962 7.57698 1.42962 8.95086C1.42962 10.3219 2.59333 11.437 4.02867 11.437H5.84858C5.85811 11.4368 5.86764 11.4368 5.87717 11.437ZM6.78785 16.1776C6.95236 16.2717 7.07279 16.4272 7.12265 16.61C7.17251 16.7929 7.14773 16.988 7.05376 17.1526L5.62413 19.6544C5.52772 19.8142 5.37262 19.93 5.19198 19.977C5.01133 20.024 4.81948 19.9984 4.65742 19.9058C4.49537 19.8132 4.37596 19.6609 4.32472 19.4814C4.27348 19.3019 4.29448 19.1095 4.38322 18.9453L5.81285 16.4435C5.90691 16.279 6.06246 16.1586 6.2453 16.1087C6.42813 16.0588 6.62328 16.0836 6.78785 16.1776ZM11.4011 16.6165C11.4524 16.796 11.4314 16.9884 11.3426 17.1526L9.91299 19.6544C9.81658 19.8142 9.66148 19.93 9.48083 19.977C9.30019 20.024 9.10834 19.9984 8.94628 19.9058C8.78423 19.8132 8.66482 19.6609 8.61358 19.4814C8.56234 19.3019 8.58334 19.1095 8.67208 18.9453L10.1017 16.4435C10.1981 16.2837 10.3532 16.1679 10.5339 16.1209C10.7145 16.0739 10.9064 16.0995 11.0684 16.1921C11.2305 16.2847 11.3499 16.437 11.4011 16.6165Z" fill="white"/>
</svg>
