<svg width="20" height="20" viewBox="0 0 20 20" fill="none" xmlns="http://www.w3.org/2000/svg">
<path d="M11.2384 18.3314C11.4597 18.3314 11.6719 18.4193 11.8283 18.5758C11.9848 18.7322 12.0727 18.9444 12.0727 19.1657C12.0727 19.387 11.9848 19.5992 11.8283 19.7556C11.6719 19.9121 11.4597 20 11.2384 20C11.0171 20 10.8049 19.9121 10.6485 19.7556C10.492 19.5992 10.4041 19.387 10.4041 19.1657C10.4041 18.9444 10.492 18.7322 10.6485 18.5758C10.8049 18.4193 11.0171 18.3314 11.2384 18.3314ZM8.32025 17.4984C8.43245 17.494 8.54437 17.5124 8.6493 17.5523C8.75424 17.5922 8.85003 17.6529 8.93095 17.7308C9.01187 17.8086 9.07624 17.902 9.12021 18.0053C9.16418 18.1086 9.18684 18.2198 9.18684 18.332C9.18684 18.4443 9.16418 18.5554 9.12021 18.6588C9.07624 18.7621 9.01187 18.8554 8.93095 18.9333C8.85003 19.0111 8.75424 19.0718 8.6493 19.1118C8.54437 19.1517 8.43245 19.1701 8.32025 19.1657C8.10474 19.1574 7.90083 19.0659 7.7513 18.9104C7.60178 18.755 7.51825 18.5477 7.51825 18.332C7.51825 18.1164 7.60178 17.9091 7.7513 17.7536C7.90083 17.5982 8.10474 17.5067 8.32025 17.4984ZM14.1566 17.4984C14.2688 17.494 14.3807 17.5124 14.4856 17.5523C14.5905 17.5922 14.6863 17.6529 14.7673 17.7308C14.8482 17.8086 14.9125 17.902 14.9565 18.0053C15.0005 18.1086 15.0232 18.2198 15.0232 18.332C15.0232 18.4443 15.0005 18.5554 14.9565 18.6588C14.9125 18.7621 14.8482 18.8554 14.7673 18.9333C14.6863 19.0111 14.5905 19.0718 14.4856 19.1118C14.3807 19.1517 14.2688 19.1701 14.1566 19.1657C13.941 19.1574 13.7371 19.0659 13.5876 18.9104C13.4381 18.755 13.3546 18.5477 13.3546 18.332C13.3546 18.1164 13.4381 17.9091 13.5876 17.7536C13.7371 17.5982 13.941 17.5067 14.1566 17.4984ZM11.2384 4.99021C14.3217 4.99021 16.0703 6.95774 16.3242 9.33554H16.4018C18.3856 9.33554 19.9941 10.8828 19.9941 12.7915C19.9941 14.7003 18.3856 16.2476 16.4018 16.2476H6.07504C4.09124 16.2476 2.48269 14.7003 2.48269 12.7915C2.48269 10.8828 4.09124 9.33554 6.07504 9.33554H6.15259C6.409 6.94148 8.15514 4.99021 11.2384 4.99021ZM11.2384 6.24102C9.17456 6.24102 7.37713 7.82956 7.37713 10.0247C7.37713 10.3725 7.05943 10.6451 6.69544 10.6451H6.00749C4.75167 10.6439 3.73351 11.6195 3.73351 12.8203C3.73351 14.0211 4.75167 14.9967 6.00749 14.9967H16.4693C17.7251 14.9967 18.7433 14.0211 18.7433 12.8203C18.7433 11.6195 17.7251 10.6439 16.4693 10.6439H15.7814C15.4186 10.6451 15.0997 10.3725 15.0997 10.0247C15.0997 7.80204 13.3023 6.24102 11.2384 6.24102ZM2.23628 8.36741C2.28447 8.50594 2.28244 8.65701 2.23054 8.79419C2.17863 8.93138 2.08017 9.04596 1.95235 9.1179L1.84853 9.16293L0.846624 9.50815C0.698768 9.55989 0.53688 9.55426 0.392976 9.49238C0.249072 9.43049 0.133632 9.31685 0.0694873 9.17394C0.00534221 9.03103 -0.00283681 8.86925 0.0465677 8.7206C0.0959723 8.57195 0.199363 8.44725 0.336291 8.37116L0.438858 8.32613L1.44201 7.98091C1.59876 7.92712 1.77045 7.93774 1.91938 8.01044C2.0683 8.08315 2.18228 8.21198 2.23628 8.36866V8.36741ZM8.63671 3.11398C9.05323 3.31661 9.41972 3.58054 9.72992 3.88949C9.22209 3.99331 8.74678 4.15216 8.30899 4.35854C7.74407 4.01851 7.07878 3.88474 6.42633 3.97999C5.77388 4.07524 5.1746 4.39363 4.73046 4.88097C4.28633 5.36831 4.02478 5.99449 3.99034 6.65295C3.95589 7.31142 4.15067 7.96147 4.54153 8.49249C4.12877 8.61507 3.74101 8.79394 3.38453 9.01783C2.90061 8.26444 2.67645 7.37341 2.74626 6.48072C2.81608 5.58802 3.17602 4.74267 3.77118 4.07367C4.36634 3.40466 5.16403 2.94873 6.04253 2.77546C6.92103 2.60218 7.83209 2.72107 8.63671 3.11398ZM1.12806 3.32662L1.23188 3.36665L2.185 3.8307C2.32551 3.899 2.43536 4.01743 2.49295 4.16266C2.55053 4.30789 2.55167 4.46942 2.49614 4.61545C2.44062 4.76148 2.33245 4.88144 2.19292 4.95172C2.05339 5.022 1.8926 5.03752 1.74221 4.99521L1.63714 4.95518L0.684018 4.49113C0.543509 4.42283 0.433653 4.30441 0.376069 4.15917C0.318485 4.01394 0.317345 3.85242 0.372871 3.70638C0.428397 3.56035 0.53657 3.44039 0.6761 3.37011C0.81563 3.29983 0.976413 3.28431 1.12681 3.32662H1.12806ZM9.97508 0.355933C10.1068 0.420188 10.2117 0.528643 10.2716 0.662375C10.3315 0.796107 10.3425 0.946624 10.3028 1.08766L10.2628 1.19273L9.79871 2.14585C9.73041 2.28636 9.61199 2.39622 9.46676 2.4538C9.32153 2.51138 9.16 2.51252 9.01397 2.457C8.86794 2.40147 8.74798 2.2933 8.67769 2.15377C8.60741 2.01424 8.5919 1.85346 8.63421 1.70306L8.67423 1.59674L9.13953 0.643621C9.2123 0.494774 9.34115 0.380882 9.4978 0.326944C9.65445 0.273007 9.82611 0.283433 9.97508 0.355933ZM5.23449 0.315907L5.28077 0.418474L5.62599 1.42163C5.67674 1.56929 5.67042 1.7306 5.60826 1.87384C5.54611 2.01708 5.43262 2.13189 5.29011 2.1957C5.1476 2.2595 4.98638 2.2677 4.83814 2.21866C4.68989 2.16963 4.56535 2.06691 4.489 1.93071L4.44397 1.82814L4.09875 0.82624C4.04879 0.678922 4.05553 0.518277 4.11765 0.375662C4.17977 0.233047 4.29281 0.118701 4.4347 0.0549443C4.57659 -0.00881242 4.73715 -0.0174029 4.88503 0.0308498C5.03291 0.0791024 5.15751 0.180735 5.23449 0.315907Z" fill="white"/>
</svg>
