<svg width="23" height="20" viewBox="0 0 23 20" fill="none" xmlns="http://www.w3.org/2000/svg">
<path d="M7.63993 17.3333C7.99356 17.3333 8.33269 17.4738 8.58274 17.7239C8.83279 17.9739 8.97327 18.313 8.97327 18.6667C8.97327 19.0203 8.83279 19.3594 8.58274 19.6095C8.33269 19.8595 7.99356 20 7.63993 20C7.28631 20 6.94717 19.8595 6.69712 19.6095C6.44708 19.3594 6.3066 19.0203 6.3066 18.6667C6.3066 18.313 6.44708 17.9739 6.69712 17.7239C6.94717 17.4738 7.28631 17.3333 7.63993 17.3333ZM18.9706 8C19.8547 8 20.7025 8.35119 21.3276 8.97631C21.9527 9.60143 22.3039 10.4493 22.3039 11.3333C22.3039 12.2174 21.9527 13.0652 21.3276 13.6904C20.7025 14.3155 19.8547 14.6667 18.9706 14.6667L18.9013 14.664L18.7493 14.676L17.7599 14.6747C17.9093 15.036 17.9919 15.432 17.9919 15.848C17.9969 16.2654 17.9185 16.6796 17.7611 17.0663C17.6038 17.453 17.3708 17.8043 17.0758 18.0997C16.7808 18.3951 16.4298 18.6285 16.0433 18.7863C15.6568 18.9441 15.2427 19.0231 14.8253 19.0187C13.4879 19.0187 12.5053 18.4267 11.9853 17.4507C11.8665 17.2268 11.8371 16.9662 11.9031 16.7215C11.9691 16.4769 12.1255 16.2664 12.3407 16.1326C12.5559 15.9988 12.8139 15.9517 13.0625 16.0009C13.3111 16.05 13.5318 16.1917 13.6799 16.3973L13.8133 16.6147C13.9946 16.8733 14.2933 17.0187 14.8266 17.0187C14.9813 17.0231 15.1353 16.9958 15.279 16.9385C15.4228 16.8812 15.5533 16.795 15.6624 16.6854C15.7716 16.5757 15.8572 16.4448 15.9139 16.3008C15.9705 16.1568 15.9971 16.0027 15.9919 15.848C15.9919 15.2613 15.5093 14.7613 14.8666 14.6933L14.5799 14.676H1.97327C1.7199 14.6759 1.47601 14.5797 1.29088 14.4067C1.10574 14.2337 0.993168 13.9969 0.975899 13.7442C0.958629 13.4914 1.03795 13.2415 1.19784 13.0449C1.35773 12.8484 1.58627 12.7199 1.83727 12.6853L1.97327 12.676H18.7493L18.8133 12.6787L18.8919 12.6693L19.1266 12.6573C19.3551 12.6299 19.5726 12.5439 19.758 12.4075C19.9433 12.2711 20.0902 12.0891 20.1844 11.8791C20.2786 11.6691 20.3168 11.4383 20.2954 11.2092C20.2739 10.9801 20.1935 10.7604 20.062 10.5716C19.9305 10.3827 19.7524 10.2311 19.5449 10.1315C19.3374 10.0319 19.1077 9.98769 18.8781 10.0032C18.6485 10.0187 18.4268 10.0933 18.2346 10.2198C18.0424 10.3464 17.8862 10.5205 17.7813 10.7253L17.6613 11.0013C17.5431 11.2257 17.3441 11.3968 17.1045 11.48C16.8649 11.5632 16.6027 11.5523 16.3709 11.4494C16.1391 11.3465 15.955 11.1595 15.8559 10.926C15.7569 10.6926 15.7502 10.4302 15.8373 10.192C16.0718 9.54948 16.4982 8.99458 17.0587 8.6025C17.6192 8.21041 18.2866 8.00008 18.9706 8ZM10.9706 1.32667C12.1601 1.32351 13.3059 1.77472 14.1739 2.58809C15.0419 3.40146 15.5665 4.51558 15.6406 5.7028C15.7146 6.89002 15.3325 8.0607 14.5723 8.97562C13.8122 9.89055 12.7313 10.4806 11.5506 10.6253L11.4173 10.652L11.2799 10.66H1.97327C1.7199 10.6599 1.47601 10.5637 1.29088 10.3907C1.10574 10.2177 0.993168 9.98094 0.975899 9.72816C0.958629 9.47538 1.03795 9.22548 1.19784 9.02893C1.35773 8.83239 1.58627 8.70387 1.83727 8.66933L1.97327 8.66H10.9719C11.4993 8.66 12.0149 8.5036 12.4535 8.21059C12.892 7.91757 13.2338 7.50109 13.4356 7.01382C13.6374 6.52655 13.6903 5.99038 13.5874 5.47309C13.4845 4.95581 13.2305 4.48066 12.8576 4.10772C12.4846 3.73478 12.0095 3.4808 11.4922 3.37791C10.9749 3.27501 10.4387 3.32782 9.95144 3.52965C9.46417 3.73149 9.0477 4.07328 8.75468 4.51181C8.46166 4.95034 8.30527 5.46592 8.30527 5.99333C8.30527 6.25855 8.19991 6.5129 8.01237 6.70044C7.82484 6.88798 7.57048 6.99333 7.30527 6.99333C7.04005 6.99333 6.7857 6.88798 6.59816 6.70044C6.41062 6.5129 6.30527 6.25855 6.30527 5.99333C6.30527 4.75566 6.79693 3.56867 7.6721 2.6935C8.54727 1.81833 9.73426 1.32667 10.9719 1.32667H10.9706ZM2.3066 1.33333C2.66022 1.33333 2.99936 1.47381 3.24941 1.72386C3.49946 1.97391 3.63993 2.31304 3.63993 2.66667C3.63993 3.02029 3.49946 3.35943 3.24941 3.60948C2.99936 3.85952 2.66022 4 2.3066 4C1.95298 4 1.61384 3.85952 1.36379 3.60948C1.11374 3.35943 0.973267 3.02029 0.973267 2.66667C0.973267 2.31304 1.11374 1.97391 1.36379 1.72386C1.61384 1.47381 1.95298 1.33333 2.3066 1.33333ZM20.9733 0C21.3269 0 21.666 0.140476 21.9161 0.390524C22.1661 0.640573 22.3066 0.979711 22.3066 1.33333C22.3066 1.68696 22.1661 2.02609 21.9161 2.27614C21.666 2.52619 21.3269 2.66667 20.9733 2.66667C20.6196 2.66667 20.2805 2.52619 20.0305 2.27614C19.7804 2.02609 19.6399 1.68696 19.6399 1.33333C19.6399 0.979711 19.7804 0.640573 20.0305 0.390524C20.2805 0.140476 20.6196 0 20.9733 0Z" fill="white"/>
</svg>
